<svg id="mermaidSvgChart" width="100%" xmlns="http://www.w3.org/2000/svg" xmlns:xlink="http://www.w3.org/1999/xlink" height="427.40625" style="max-width: 294.76171875px;" viewBox="-20 -20 294.76171875 427.40625"><style>#mermaidSvgChart{font-family:"trebuchet ms",verdana,arial,sans-serif;font-size:16px;fill:#ccc;}#mermaidSvgChart .error-icon{fill:#a44141;}#mermaidSvgChart .error-text{fill:#ddd;stroke:#ddd;}#mermaidSvgChart .edge-thickness-normal{stroke-width:2px;}#mermaidSvgChart .edge-thickness-thick{stroke-width:3.5px;}#mermaidSvgChart .edge-pattern-solid{stroke-dasharray:0;}#mermaidSvgChart .edge-pattern-dashed{stroke-dasharray:3;}#mermaidSvgChart .edge-pattern-dotted{stroke-dasharray:2;}#mermaidSvgChart .marker{fill:lightgrey;stroke:lightgrey;}#mermaidSvgChart .marker.cross{stroke:lightgrey;}#mermaidSvgChart svg{font-family:"trebuchet ms",verdana,arial,sans-serif;font-size:16px;}#mermaidSvgChart g.classGroup text{fill:#81B1DB;fill:#e0dfdf;stroke:none;font-family:"trebuchet ms",verdana,arial,sans-serif;font-size:10px;}#mermaidSvgChart g.classGroup text .title{font-weight:bolder;}#mermaidSvgChart .classTitle{font-weight:bolder;}#mermaidSvgChart .node rect,#mermaidSvgChart .node circle,#mermaidSvgChart .node ellipse,#mermaidSvgChart .node polygon,#mermaidSvgChart .node path{fill:#1f2020;stroke:#81B1DB;stroke-width:1px;}#mermaidSvgChart .divider{stroke:#81B1DB;stroke:1;}#mermaidSvgChart g.clickable{cursor:pointer;}#mermaidSvgChart g.classGroup rect{fill:#1f2020;stroke:#81B1DB;}#mermaidSvgChart g.classGroup line{stroke:#81B1DB;stroke-width:1;}#mermaidSvgChart .classLabel .box{stroke:none;stroke-width:0;fill:#1f2020;opacity:0.5;}#mermaidSvgChart .classLabel .label{fill:#81B1DB;font-size:10px;}#mermaidSvgChart .relation{stroke:lightgrey;stroke-width:1;fill:none;}#mermaidSvgChart .dashed-line{stroke-dasharray:3;}#mermaidSvgChart #compositionStart,#mermaidSvgChart .composition{fill:lightgrey !important;stroke:lightgrey !important;stroke-width:1;}#mermaidSvgChart #compositionEnd,#mermaidSvgChart .composition{fill:lightgrey !important;stroke:lightgrey !important;stroke-width:1;}#mermaidSvgChart #dependencyStart,#mermaidSvgChart .dependency{fill:lightgrey !important;stroke:lightgrey !important;stroke-width:1;}#mermaidSvgChart #dependencyStart,#mermaidSvgChart .dependency{fill:lightgrey !important;stroke:lightgrey !important;stroke-width:1;}#mermaidSvgChart #extensionStart,#mermaidSvgChart .extension{fill:lightgrey !important;stroke:lightgrey !important;stroke-width:1;}#mermaidSvgChart #extensionEnd,#mermaidSvgChart .extension{fill:lightgrey !important;stroke:lightgrey !important;stroke-width:1;}#mermaidSvgChart #aggregationStart,#mermaidSvgChart .aggregation{fill:#1f2020 !important;stroke:lightgrey !important;stroke-width:1;}#mermaidSvgChart #aggregationEnd,#mermaidSvgChart .aggregation{fill:#1f2020 !important;stroke:lightgrey !important;stroke-width:1;}#mermaidSvgChart .edgeTerminals{font-size:11px;}#mermaidSvgChart:root{--mermaid-font-family:"trebuchet ms",verdana,arial,sans-serif;}#mermaidSvgChart class{fill:apa;}</style><g></g><defs><marker id="extensionStart" class="extension" refX="0" refY="7" markerWidth="190" markerHeight="240" orient="auto"><path d="M 1,7 L18,13 V 1 Z"></path></marker></defs><defs><marker id="extensionEnd" refX="19" refY="7" markerWidth="20" markerHeight="28" orient="auto"><path d="M 1,1 V 13 L18,7 Z"></path></marker></defs><defs><marker id="compositionStart" class="extension" refX="0" refY="7" markerWidth="190" markerHeight="240" orient="auto"><path d="M 18,7 L9,13 L1,7 L9,1 Z"></path></marker></defs><defs><marker id="compositionEnd" refX="19" refY="7" markerWidth="20" markerHeight="28" orient="auto"><path d="M 18,7 L9,13 L1,7 L9,1 Z"></path></marker></defs><defs><marker id="aggregationStart" class="extension" refX="0" refY="7" markerWidth="190" markerHeight="240" orient="auto"><path d="M 18,7 L9,13 L1,7 L9,1 Z"></path></marker></defs><defs><marker id="aggregationEnd" refX="19" refY="7" markerWidth="20" markerHeight="28" orient="auto"><path d="M 18,7 L9,13 L1,7 L9,1 Z"></path></marker></defs><defs><marker id="dependencyStart" class="extension" refX="0" refY="7" markerWidth="190" markerHeight="240" orient="auto"><path d="M 5,7 L9,13 L1,7 L9,1 Z"></path></marker></defs><defs><marker id="dependencyEnd" refX="19" refY="7" markerWidth="20" markerHeight="28" orient="auto"><path d="M 18,7 L9,13 L14,7 L9,1 Z"></path></marker></defs><g id="classid-KID-0" class="classGroup" transform="translate(0,142.46875 )"><rect x="0" y="0" width="64.78125" height="102.46875" class=" "></rect><text y="15" x="0"><tspan class="title" x="24.703125">KID</tspan></text><line x1="0" y1="21.546875" y2="21.546875" x2="64.78125"></line><text x="5" y="31.546875" fill="white" class="classText"><tspan x="5">ADDRESS</tspan><tspan x="5" dy="10">BIRTHDATE</tspan><tspan x="5" dy="10">COUNTRY</tspan><tspan x="5" dy="10">GOODNESS</tspan><tspan x="5" dy="10">ID</tspan><tspan x="5" dy="10">LASTNAME</tspan><tspan x="5" dy="10">NAME</tspan></text><line x1="0" y1="98.09375" y2="98.09375" x2="64.78125"></line><text x="5" y="113.09375" fill="white" class="classText"></text></g><g id="classid-ELF-1" class="classGroup" transform="translate(95.84375,294.9375 )"><rect x="0" y="0" width="115.828125" height="92.46875" class=" "></rect><text y="15" x="0"><tspan class="title" x="49.390625">ELF</tspan></text><line x1="0" y1="21.546875" y2="21.546875" x2="115.828125"></line><text x="5" y="31.546875" fill="white" class="classText"><tspan x="5">COOKIE_WAGE</tspan><tspan x="5" dy="10">DELIVERY_COUNTRY</tspan><tspan x="5" dy="10">ID</tspan><tspan x="5" dy="10">MANUFACTURED_TOYS</tspan><tspan x="5" dy="10">NAME</tspan><tspan x="5" dy="10">YEARS_OF_SERVICE</tspan></text><line x1="0" y1="88.09375" y2="88.09375" x2="115.828125"></line><text x="5" y="103.09375" fill="white" class="classText"></text></g><g id="classid-TOY-2" class="classGroup" transform="translate(114.78125,147.46875 )"><rect x="0" y="0" width="77.953125" height="92.46875" class=" "></rect><text y="15" x="0"><tspan class="title" x="29.3359375">TOY</tspan></text><line x1="0" y1="21.546875" y2="21.546875" x2="77.953125"></line><text x="5" y="31.546875" fill="white" class="classText"><tspan x="5">AVAILABLE</tspan><tspan x="5" dy="10">ID</tspan><tspan x="5" dy="10">MINIMUM_AGE</tspan><tspan x="5" dy="10">NAME</tspan><tspan x="5" dy="10">PRICE</tspan><tspan x="5" dy="10">TOY_MAKER</tspan></text><line x1="0" y1="88.09375" y2="88.09375" x2="77.953125"></line><text x="5" y="103.09375" fill="white" class="classText"></text></g><g id="classid-KID_TOY-3" class="classGroup" transform="translate(67.82421875,15 )"><rect x="0" y="0" width="50.5" height="62.46875" class=" "></rect><text y="15" x="0"><tspan class="title" x="5">KID_TOY</tspan></text><line x1="0" y1="21.546875" y2="21.546875" x2="50.5"></line><text x="5" y="31.546875" fill="white" class="classText"><tspan x="5">ID</tspan><tspan x="5" dy="10">KID_ID</tspan><tspan x="5" dy="10">TOY_ID</tspan></text><line x1="0" y1="58.09375" y2="58.09375" x2="50.5"></line><text x="5" y="73.09375" fill="white" class="classText"></text></g><g id="classid-KIDS_TEMPORAL-4" class="classGroup" transform="translate(168.32421875,0 )"><rect x="0" y="0" width="86.4375" height="92.46875" class=" "></rect><text y="15" x="0"><tspan class="title" x="5">KIDS_TEMPORAL</tspan></text><line x1="0" y1="21.546875" y2="21.546875" x2="86.4375"></line><text x="5" y="31.546875" fill="white" class="classText"><tspan x="5">Address</tspan><tspan x="5" dy="10">Birthdate</tspan><tspan x="5" dy="10">Country</tspan><tspan x="5" dy="10">Goodness</tspan><tspan x="5" dy="10">Last_Name</tspan><tspan x="5" dy="10">Name</tspan></text><line x1="0" y1="88.09375" y2="88.09375" x2="86.4375"></line><text x="5" y="103.09375" fill="white" class="classText"></text></g><path d="M153.7578125,239.9375L153.7578125,244.9375C153.7578125,249.9375,153.7578125,259.9375,153.7578125,269.1041666666667C153.7578125,278.2708333333333,153.7578125,286.6041666666667,153.7578125,290.7708333333333L153.7578125,294.9375" id="edge0" class="relation" marker-end="url(#extensionEnd)"></path><g class="classLabel"><rect class="box" x="146.796875" y="255.5625" width="13.921875" height="16.546875"></rect><text class="label" x="153.7578125" y="267.4375" fill="red" text-anchor="middle">ID</text></g><path d="M67.82421875,75.87447799324107L61.918619791666664,82.80685666103422C56.013020833333336,89.73923532882738,44.201822916666664,103.60399266441368,38.296223958333336,114.70303799887351C32.390625,125.80208333333333,32.390625,134.13541666666666,32.390625,138.30208333333334L32.390625,142.46875" id="edge1" class="relation" marker-end="url(#extensionEnd)"></path><g class="classLabel"><rect class="box" x="35.03125" y="94.3125" width="13.9375" height="16.546875"></rect><text class="label" x="42.001400798471835" y="106.18699219755827" fill="red" text-anchor="middle">ID</text></g><path d="M118.32421875,75.87447799324107L124.22981770833333,82.80685666103422C130.13541666666666,89.73923532882738,141.94661458333334,103.60399266441368,147.85221354166666,115.53637133220684C153.7578125,127.46875,153.7578125,137.46875,153.7578125,142.46875L153.7578125,147.46875" id="edge2" class="relation" marker-end="url(#extensionEnd)"></path><g class="classLabel"><rect class="box" x="138.8125" y="96.21875" width="13.921875" height="16.546875"></rect><text class="label" x="145.7682409168338" y="108.0900678377458" fill="red" text-anchor="middle">ID</text></g></svg>